<svg width="44" height="44" viewBox="0 0 44 44" fill="none" xmlns="http://www.w3.org/2000/svg">
<path d="M13.6071 18.5495L21.9839 10.1728L30.3805 18.5495L35.267 13.683L21.9839 0.399902L8.7207 13.6631L13.6071 18.5495Z" fill="#F3BA2F"/>
<path d="M0.400696 22.0008L5.28027 26.8804L10.1599 22.0008L5.28027 17.1212L0.400696 22.0008Z" fill="#F3BA2F"/>
<path d="M13.6071 25.4504L21.9839 33.8272L30.3805 25.4504L35.267 30.3169L21.9839 43.6L8.7207 30.3169L13.6071 25.4504Z" fill="#F3BA2F"/>
<path d="M38.6979 17.1251L33.8184 22.0046L38.6979 26.8842L43.5775 22.0046L38.6979 17.1251Z" fill="#F3BA2F"/>
<path d="M26.9296 22H26.9496L21.9834 17.0537L18.3335 20.7036L17.9147 21.1224L17.0371 22L21.9834 26.9462L26.9496 22H26.9296Z" fill="#F3BA2F"/>
</svg>
