<svg width="44" height="44" viewBox="0 0 44 44" fill="none" xmlns="http://www.w3.org/2000/svg">
<path d="M42.9541 27.2282C40.0689 38.8011 28.3475 45.8441 16.7733 42.9582C5.20393 40.073 -1.83908 28.3508 1.04735 16.7789C3.93125 5.20482 15.6527 -1.83872 27.2233 1.04644C38.7967 3.9316 45.8393 15.655 42.9538 27.2284L42.954 27.2282H42.9541Z" fill="#F7931A"/>
<path d="M31.5256 18.9247C31.9556 16.0499 29.7669 14.5046 26.774 13.4737L27.7449 9.57953L25.3744 8.98886L24.4293 12.7805C23.8061 12.6251 23.1661 12.4786 22.53 12.3334L23.482 8.51676L21.113 7.92609L20.1416 11.819C19.6259 11.7016 19.1193 11.5855 18.6279 11.4633L18.6307 11.451L15.3617 10.6347L14.7311 13.1666C14.7311 13.1666 16.4898 13.5697 16.4527 13.5945C17.4127 13.8341 17.5863 14.4695 17.5574 14.9732L16.4515 19.4096C16.5176 19.4264 16.6033 19.4507 16.6979 19.4887C16.6188 19.4691 16.5347 19.4476 16.4474 19.4267L14.8972 25.6415C14.7799 25.9331 14.4821 26.3708 13.811 26.2046C13.8347 26.239 12.088 25.7746 12.088 25.7746L10.9111 28.4881L13.996 29.2571C14.5699 29.401 15.1322 29.5516 15.6861 29.6932L14.7051 33.632L17.0729 34.2227L18.0443 30.3257C18.6912 30.5013 19.3189 30.6633 19.9334 30.8159L18.9653 34.6946L21.3359 35.2853L22.3167 31.3538C26.359 32.1188 29.3984 31.8104 30.6777 28.1542C31.7086 25.2106 30.6264 23.5127 28.4998 22.4054C30.0487 22.0482 31.2154 21.0295 31.5265 18.9251L31.5257 18.9245L31.5256 18.9247ZM26.1096 26.5195C25.377 29.4631 20.4207 27.8719 18.8139 27.4728L20.1156 22.2545C21.7224 22.6557 26.8752 23.4495 26.1097 26.5195H26.1096ZM26.8427 18.8821C26.1744 21.5596 22.0493 20.1993 20.7111 19.8658L21.8913 15.1331C23.2295 15.4666 27.5388 16.0892 26.8429 18.8821H26.8427Z" fill="white"/>
</svg>
