<svg width="48" height="48" viewBox="0 0 48 48" fill="none" xmlns="http://www.w3.org/2000/svg">
<path d="M36.9729 14.7259C37.4404 11.6778 36.9729 9.64574 35.3367 7.76999C33.5446 5.65977 30.2721 4.80005 26.0646 4.80005H13.9875C13.1304 4.80005 12.4291 5.4253 12.2733 6.28502L7.20869 38.3291C7.13077 38.9544 7.59828 39.5015 8.22161 39.5015H15.7016L15.1562 42.784C15.0783 43.3311 15.4679 43.8 16.0912 43.8H22.4025C23.1816 43.8 23.805 43.253 23.8829 42.5495L25.2075 34.265C25.2854 33.5616 25.9866 33.0145 26.6879 33.0145H27.6229C33.7004 33.0145 38.5313 30.5135 39.9338 23.3231C40.4792 20.3532 40.2454 17.774 38.6871 16.0546C38.2196 15.5075 37.6742 15.1167 36.9729 14.7259Z" fill="#009CDE"/>
<path d="M36.9729 14.7259C37.4404 11.6778 36.9729 9.64574 35.3367 7.76999C33.5446 5.65977 30.2721 4.80005 26.0646 4.80005H13.9875C13.1304 4.80005 12.4291 5.4253 12.2733 6.28502L7.20869 38.3291C7.13077 38.9544 7.59828 39.5015 8.22161 39.5015H15.7016L17.4937 27.9343C17.6495 27.0746 18.3508 26.4493 19.2079 26.4493H22.7921C29.8046 26.4493 35.2587 23.6357 36.8171 15.3512C36.895 15.1948 36.895 14.9604 36.9729 14.7259Z" fill="#012169"/>
<path d="M19.5975 14.8041C19.6754 14.257 20.3766 13.5536 21.0779 13.5536H30.5837C31.6746 13.5536 32.7654 13.6317 33.7004 13.788C34.5575 13.9443 36.1158 14.3351 36.895 14.8041C37.3625 11.756 36.895 9.7239 35.2587 7.84815C33.5446 5.65977 30.2721 4.80005 26.0646 4.80005H13.9875C13.1304 4.80005 12.4291 5.4253 12.2733 6.28502L7.20869 38.3291C7.13077 38.9544 7.59828 39.5015 8.22161 39.5015H15.7016L19.5975 14.8041Z" fill="#003087"/>
</svg>
