<svg width="24" height="24" viewBox="0 0 24 24" fill="none" xmlns="http://www.w3.org/2000/svg">
<path d="M11.1024 6.50563V1.82844C11.1024 1.33112 11.4991 0.916687 12.0008 0.916687C12.4499 0.916687 12.8305 1.26493 12.8908 1.70603L12.8991 1.82844V6.50563L18.4757 6.50598C21.2523 6.50598 23.5336 8.77977 23.6616 11.6155L23.6673 11.8671V17.7463C23.6673 20.6019 21.4654 22.9459 18.73 23.0775L18.4873 23.0834H5.51398C2.73732 23.0834 0.467089 20.8209 0.339628 17.9748L0.333984 17.7222L0.333984 11.8551C0.333984 8.99947 2.52488 6.6441 5.25964 6.51184L5.50232 6.50598H11.1023V13.9754L9.23565 12.0478C8.88565 11.6864 8.31398 11.6864 7.96398 12.0478C7.78898 12.2286 7.70732 12.4695 7.70732 12.7105C7.70732 12.8936 7.75958 13.0844 7.87009 13.2459L7.96398 13.361L11.359 16.8789C11.5223 17.0596 11.7557 17.156 12.0007 17.156C12.1951 17.156 12.3895 17.0891 12.5435 16.9622L12.6307 16.8789L16.0257 13.361C16.3757 12.9996 16.3757 12.4093 16.0257 12.0478C15.7075 11.7193 15.2061 11.6894 14.8546 11.9582L14.754 12.0478L12.899 13.9754V6.50598L11.1024 6.50563Z" fill="url(#paint0_linear_1994_15692)"/>
<defs>
<linearGradient id="paint0_linear_1994_15692" x1="23.6673" y1="23.0834" x2="-3.86659" y2="14.68" gradientUnits="userSpaceOnUse">
<stop stop-color="#1BAC4B"/>
<stop offset="1" stop-color="#46D375"/>
</linearGradient>
</defs>
</svg>
